# Blender 4.3.1
# www.blender.org
mtllib kyabetu1.mtl
o 球.001
v 0.000000 2.280663 0.000000
v 0.444935 2.236840 0.000000
v 0.872772 2.107058 0.000000
v 1.267068 1.896302 0.000000
v 1.612672 1.612672 -0.000000
v 1.896301 1.267068 0.000000
v 2.107058 0.872772 -0.000000
v 2.236840 0.444935 0.000000
v 2.280662 0.000000 0.000000
v 0.436386 2.236840 0.086803
v 0.856002 2.107058 0.170269
v 1.242722 1.896302 0.247193
v 1.581685 1.612672 0.314617
v 1.859864 1.267068 0.369950
v 2.066571 0.872772 0.411066
v 2.193860 0.444935 0.436386
v 2.236840 0.000000 0.444935
v 0.411066 2.236840 0.170269
v 0.806336 2.107058 0.333995
v 1.170618 1.896302 0.484886
v 1.489915 1.612672 0.617143
v 1.751954 1.267068 0.725683
v 1.946667 0.872772 0.806336
v 2.066571 0.444935 0.856002
v 2.107057 0.000000 0.872772
v 0.369950 2.236840 0.247193
v 0.725683 2.107058 0.484886
v 1.053528 1.896302 0.703945
v 1.340888 1.612672 0.895952
v 1.576717 1.267068 1.053529
v 1.751954 0.872772 1.170618
v 1.859864 0.444935 1.242722
v 1.896301 0.000000 1.267068
v 0.314617 2.236840 0.314617
v 0.617143 2.107058 0.617143
v 0.895952 1.896302 0.895952
v 1.140331 1.612672 1.140331
v 1.340887 1.267068 1.340888
v 1.489915 0.872772 1.489914
v 1.581685 0.444935 1.581685
v 1.612671 0.000000 1.612672
v 0.247193 2.236840 0.369950
v 0.484886 2.107058 0.725683
v 0.703945 1.896302 1.053529
v 0.895952 1.612672 1.340888
v 1.053528 1.267068 1.576717
v 1.170618 0.872772 1.751954
v 1.242721 0.444935 1.859864
v 1.267067 0.000000 1.896301
v 0.170269 2.236840 0.411066
v 0.333995 2.107058 0.806336
v 0.484886 1.896302 1.170618
v 0.617143 1.612672 1.489915
v 0.725683 1.267068 1.751954
v 0.806336 0.872772 1.946667
v 0.856001 0.444935 2.066571
v 0.872771 0.000000 2.107057
v 0.086802 2.236840 0.436386
v 0.170269 2.107058 0.856002
v 0.247192 1.896302 1.242721
v 0.314617 1.612672 1.581685
v 0.369950 1.267068 1.859864
v 0.411067 0.872772 2.066571
v 0.436385 0.444935 2.193860
v 0.444934 0.000000 2.236839
v -0.000000 2.236840 0.444935
v -0.000000 2.107058 0.872772
v -0.000000 1.896302 1.267068
v -0.000000 1.612672 1.612672
v -0.000000 1.267068 1.896301
v 0.000000 0.872772 2.107057
v -0.000000 0.444935 2.236840
v -0.000001 0.000000 2.280661
v -0.086803 2.236840 0.436386
v -0.170269 2.107058 0.856002
v -0.247193 1.896302 1.242721
v -0.314617 1.612672 1.581685
v -0.369950 1.267068 1.859864
v -0.411066 0.872772 2.066571
v -0.436386 0.444935 2.193859
v -0.444936 0.000000 2.236839
v -0.170269 2.236840 0.411066
v -0.333995 2.107058 0.806336
v -0.484886 1.896302 1.170618
v -0.617143 1.612672 1.489914
v -0.725683 1.267068 1.751954
v -0.806336 0.872772 1.946667
v -0.856002 0.444935 2.066570
v -0.872772 0.000000 2.107056
v -0.247193 2.236840 0.369950
v -0.484886 2.107058 0.725683
v -0.703945 1.896302 1.053528
v -0.895952 1.612672 1.340888
v -1.053529 1.267068 1.576716
v -1.170618 0.872772 1.751954
v -1.242722 0.444935 1.859864
v -1.267068 0.000000 1.896300
v -0.314616 2.236840 0.314616
v -0.617143 2.107058 0.617143
v -0.895952 1.896302 0.895952
v -1.140331 1.612672 1.140331
v -1.340887 1.267068 1.340887
v -1.489914 0.872772 1.489914
v -1.581685 0.444935 1.581684
v -1.612671 0.000000 1.612670
v -0.369950 2.236840 0.247193
v -0.725683 2.107058 0.484886
v -1.053528 1.896302 0.703945
v -1.340888 1.612672 0.895952
v -1.576717 1.267068 1.053528
v -1.751954 0.872772 1.170618
v -1.859864 0.444935 1.242721
v -1.896301 0.000000 1.267066
v -0.411066 2.236840 0.170269
v -0.806336 2.107058 0.333995
v -1.170618 1.896302 0.484885
v -1.489914 1.612672 0.617143
v -1.751954 1.267068 0.725683
v -1.946667 0.872772 0.806336
v -2.066571 0.444935 0.856001
v -2.107056 0.000000 0.872770
v -0.436386 2.236840 0.086802
v -0.856001 2.107058 0.170269
v -1.242721 1.896302 0.247192
v -1.581685 1.612672 0.314617
v -1.859864 1.267068 0.369950
v -2.066570 0.872772 0.411066
v -2.193859 0.444935 0.436385
v -2.236839 0.000000 0.444934
v -0.444935 2.236840 -0.000000
v -0.872771 2.107058 -0.000000
v -1.267067 1.896302 -0.000000
v -1.612672 1.612672 -0.000000
v -1.896301 1.267068 -0.000000
v -2.107057 0.872772 -0.000000
v -2.236840 0.444935 -0.000001
v -2.280661 0.000000 -0.000001
vn 0.7708 0.6326 0.0759
vn 0.8786 0.4696 0.0865
vn 0.9527 0.2890 0.0938
vn 0.9904 0.0975 0.0976
vn 0.0980 0.9951 0.0097
vn 0.2902 0.9565 0.0286
vn 0.4709 0.8810 0.0464
vn 0.6332 0.7715 0.0624
vn 0.0942 0.9951 0.0286
vn 0.2790 0.9565 0.0846
vn 0.4528 0.8810 0.1374
vn 0.6088 0.7715 0.1847
vn 0.7412 0.6326 0.2248
vn 0.8448 0.4696 0.2563
vn 0.9161 0.2890 0.2779
vn 0.9524 0.0975 0.2889
vn 0.6831 0.6326 0.3651
vn 0.7786 0.4696 0.4162
vn 0.8443 0.2890 0.4513
vn 0.8777 0.0975 0.4691
vn 0.0869 0.9951 0.0464
vn 0.2571 0.9565 0.1374
vn 0.4173 0.8810 0.2230
vn 0.5611 0.7715 0.2999
vn 0.2254 0.9565 0.1850
vn 0.3658 0.8810 0.3002
vn 0.4918 0.7715 0.4036
vn 0.5987 0.6326 0.4913
vn 0.6825 0.4696 0.5601
vn 0.7400 0.2890 0.6073
vn 0.7693 0.0975 0.6314
vn 0.0761 0.9951 0.0625
vn 0.5601 0.4696 0.6825
vn 0.6073 0.2890 0.7400
vn 0.6314 0.0975 0.7693
vn 0.0625 0.9951 0.0761
vn 0.1850 0.9565 0.2254
vn 0.3002 0.8810 0.3658
vn 0.4036 0.7715 0.4918
vn 0.4913 0.6326 0.5987
vn 0.2230 0.8810 0.4173
vn 0.2999 0.7715 0.5611
vn 0.3651 0.6326 0.6831
vn 0.4162 0.4696 0.7786
vn 0.4513 0.2890 0.8443
vn 0.4691 0.0975 0.8777
vn 0.0464 0.9951 0.0869
vn 0.1374 0.9565 0.2571
vn 0.2779 0.2890 0.9161
vn 0.2889 0.0975 0.9524
vn 0.0286 0.9951 0.0942
vn 0.0846 0.9565 0.2790
vn 0.1374 0.8810 0.4528
vn 0.1847 0.7715 0.6088
vn 0.2248 0.6326 0.7412
vn 0.2563 0.4696 0.8448
vn 0.0464 0.8810 0.4709
vn 0.0624 0.7715 0.6332
vn 0.0759 0.6326 0.7708
vn 0.0865 0.4696 0.8786
vn 0.0938 0.2890 0.9527
vn 0.0975 0.0975 0.9904
vn 0.0097 0.9951 0.0980
vn 0.0286 0.9565 0.2902
vn -0.0938 0.2890 0.9527
vn -0.0976 0.0975 0.9904
vn -0.0097 0.9951 0.0980
vn -0.0286 0.9565 0.2902
vn -0.0464 0.8810 0.4709
vn -0.0624 0.7715 0.6332
vn -0.0759 0.6326 0.7708
vn -0.0865 0.4696 0.8786
vn -0.1847 0.7715 0.6088
vn -0.2248 0.6326 0.7412
vn -0.2563 0.4696 0.8448
vn -0.2779 0.2890 0.9161
vn -0.2889 0.0975 0.9524
vn -0.0286 0.9951 0.0942
vn -0.0846 0.9565 0.2790
vn -0.1374 0.8810 0.4528
vn -0.4691 0.0975 0.8777
vn -0.0464 0.9951 0.0869
vn -0.1374 0.9565 0.2571
vn -0.2230 0.8810 0.4173
vn -0.2999 0.7715 0.5611
vn -0.3651 0.6326 0.6831
vn -0.4162 0.4696 0.7786
vn -0.4513 0.2890 0.8443
vn -0.4036 0.7715 0.4918
vn -0.4913 0.6326 0.5987
vn -0.5601 0.4696 0.6825
vn -0.6073 0.2890 0.7400
vn -0.6314 0.0975 0.7693
vn -0.0625 0.9951 0.0761
vn -0.1850 0.9565 0.2254
vn -0.3002 0.8810 0.3658
vn -0.7693 0.0975 0.6314
vn -0.0761 0.9951 0.0625
vn -0.2254 0.9565 0.1850
vn -0.3658 0.8810 0.3002
vn -0.4918 0.7715 0.4036
vn -0.5987 0.6326 0.4913
vn -0.6825 0.4696 0.5601
vn -0.7400 0.2890 0.6073
vn -0.6831 0.6326 0.3651
vn -0.7786 0.4696 0.4162
vn -0.8443 0.2890 0.4513
vn -0.8777 0.0975 0.4691
vn -0.0869 0.9951 0.0464
vn -0.2571 0.9565 0.1374
vn -0.4173 0.8810 0.2230
vn -0.5611 0.7715 0.2999
vn -0.2790 0.9565 0.0846
vn -0.4528 0.8810 0.1374
vn -0.6088 0.7715 0.1847
vn -0.7412 0.6326 0.2248
vn -0.8448 0.4696 0.2563
vn -0.9161 0.2890 0.2779
vn -0.9524 0.0975 0.2889
vn -0.0942 0.9951 0.0286
vn -0.8786 0.4696 0.0865
vn -0.9527 0.2890 0.0938
vn -0.9904 0.0975 0.0975
vn -0.0980 0.9951 0.0097
vn -0.2902 0.9565 0.0286
vn -0.4709 0.8810 0.0464
vn -0.6332 0.7715 0.0624
vn -0.7708 0.6326 0.0759
vn -0.0000 -1.0000 -0.0000
vn -0.0000 -0.0000 -1.0000
vt 0.562604 0.488141
vt 0.562604 0.511094
vt 0.551128 0.511094
vt 0.551128 0.488141
vt 0.562604 0.465187
vt 0.551128 0.465187
vt 0.562604 0.442234
vt 0.551128 0.442234
vt 0.562604 0.419280
vt 0.551128 0.419280
vt 0.484680 0.619244
vt 0.478942 0.642197
vt 0.473203 0.619244
vt 0.552372 0.267938
vt 0.540895 0.267938
vt 0.562604 0.534047
vt 0.551128 0.534047
vt 0.467465 0.642197
vt 0.461727 0.619244
vt 0.529419 0.267938
vt 0.539651 0.534047
vt 0.539651 0.511094
vt 0.539651 0.488141
vt 0.539651 0.465187
vt 0.539651 0.442234
vt 0.539651 0.419280
vt 0.528174 0.511094
vt 0.528174 0.488141
vt 0.528174 0.465187
vt 0.528174 0.442234
vt 0.528174 0.419280
vt 0.455988 0.642197
vt 0.450250 0.619244
vt 0.517942 0.267938
vt 0.528174 0.534047
vt 0.438773 0.619244
vt 0.506465 0.267938
vt 0.516698 0.534047
vt 0.516698 0.511094
vt 0.516698 0.488141
vt 0.516698 0.465187
vt 0.516698 0.442234
vt 0.516698 0.419280
vt 0.444512 0.642197
vt 0.505221 0.488141
vt 0.505221 0.465187
vt 0.505221 0.442234
vt 0.505221 0.419280
vt 0.433035 0.642197
vt 0.427297 0.619244
vt 0.494988 0.267938
vt 0.505221 0.534047
vt 0.505221 0.511094
vt 0.483512 0.267938
vt 0.493744 0.534047
vt 0.493744 0.511094
vt 0.493744 0.488141
vt 0.493744 0.465187
vt 0.493744 0.442234
vt 0.493744 0.419280
vt 0.421558 0.642197
vt 0.415820 0.619244
vt 0.482268 0.465187
vt 0.482268 0.442234
vt 0.482268 0.419280
vt 0.410081 0.642197
vt 0.404343 0.619244
vt 0.472035 0.267938
vt 0.482268 0.534047
vt 0.482268 0.511094
vt 0.482268 0.488141
vt 0.470791 0.557001
vt 0.470791 0.534047
vt 0.470791 0.511094
vt 0.470791 0.488141
vt 0.470791 0.465187
vt 0.470791 0.442234
vt 0.470791 0.419280
vt 0.476529 0.602907
vt 0.470791 0.579954
vt 0.459314 0.465187
vt 0.459314 0.442234
vt 0.459314 0.419280
vt 0.465053 0.602907
vt 0.459314 0.579954
vt 0.459314 0.557001
vt 0.459314 0.534047
vt 0.459314 0.511094
vt 0.459314 0.488141
vt 0.328983 0.447048
vt 0.328983 0.424095
vt 0.328983 0.401141
vt 0.328983 0.378188
vt 0.328983 0.355235
vt 0.328983 0.332281
vt 0.453576 0.602907
vt 0.328983 0.492955
vt 0.328983 0.470001
vt 0.317506 0.355235
vt 0.317506 0.332281
vt 0.323245 0.515908
vt 0.317506 0.492955
vt 0.317506 0.470001
vt 0.317506 0.447048
vt 0.317506 0.424095
vt 0.317506 0.401141
vt 0.317506 0.378188
vt 0.306030 0.447048
vt 0.306030 0.424095
vt 0.306030 0.401141
vt 0.306030 0.378188
vt 0.306030 0.355235
vt 0.306030 0.332281
vt 0.311768 0.515908
vt 0.306030 0.492955
vt 0.306030 0.470001
vt 0.294553 0.355235
vt 0.294553 0.332281
vt 0.300291 0.515908
vt 0.294553 0.492955
vt 0.294553 0.470001
vt 0.294553 0.447048
vt 0.294553 0.424095
vt 0.294553 0.401141
vt 0.294553 0.378188
vt 0.283076 0.424095
vt 0.283076 0.401141
vt 0.283076 0.378188
vt 0.283076 0.355235
vt 0.283076 0.332281
vt 0.288815 0.515908
vt 0.283076 0.492955
vt 0.283076 0.470001
vt 0.283076 0.447048
vt 0.271600 0.492955
vt 0.271600 0.470001
vt 0.271600 0.447048
vt 0.271600 0.424095
vt 0.271600 0.401141
vt 0.271600 0.378188
vt 0.271600 0.355235
vt 0.271600 0.332281
vt 0.277338 0.515908
vt 0.260123 0.401141
vt 0.260123 0.378188
vt 0.260123 0.355235
vt 0.260123 0.332281
vt 0.265861 0.515908
vt 0.260123 0.492955
vt 0.260123 0.470001
vt 0.260123 0.447048
vt 0.260123 0.424095
vt 0.727769 0.802071
vt 0.695250 0.807054
vt 0.660943 0.798586
vt 0.626166 0.776993
vt 0.592257 0.743104
vt 0.560517 0.698221
vt 0.532168 0.644070
vt 0.508297 0.582732
vt 0.489823 0.516563
vt 0.477456 0.448107
vt 0.471670 0.379993
vt 0.472689 0.314841
vt 0.480472 0.255153
vt 0.494722 0.203224
vt 0.514889 0.161048
vt 0.540200 0.130247
vt 0.757250 0.783828
vt 0.819994 0.465968
vt 0.825780 0.534082
vt 0.824761 0.599234
vt 0.816978 0.658922
vt 0.802728 0.710852
vt 0.782561 0.753027
vt 0.569681 0.112004
vt 0.602201 0.107021
vt 0.636507 0.115489
vt 0.671284 0.137082
vt 0.705193 0.170971
vt 0.736933 0.215854
vt 0.765283 0.270005
vt 0.789153 0.331343
vt 0.807627 0.397512
s 0
usemtl マテリアル
f 6/1/1 5/2/1 13/3/1 14/4/1
f 7/5/2 6/1/2 14/4/2 15/6/2
f 8/7/3 7/5/3 15/6/3 16/8/3
f 9/9/4 8/7/4 16/8/4 17/10/4
f 2/11/5 1/12/5 10/13/5
f 3/14/6 2/11/6 10/13/6 11/15/6
f 4/16/7 3/14/7 11/15/7 12/17/7
f 5/2/8 4/16/8 12/17/8 13/3/8
f 10/13/9 1/18/9 18/19/9
f 11/15/10 10/13/10 18/19/10 19/20/10
f 12/17/11 11/15/11 19/20/11 20/21/11
f 13/3/12 12/17/12 20/21/12 21/22/12
f 14/4/13 13/3/13 21/22/13 22/23/13
f 15/6/14 14/4/14 22/23/14 23/24/14
f 16/8/15 15/6/15 23/24/15 24/25/15
f 17/10/16 16/8/16 24/25/16 25/26/16
f 22/23/17 21/22/17 29/27/17 30/28/17
f 23/24/18 22/23/18 30/28/18 31/29/18
f 24/25/19 23/24/19 31/29/19 32/30/19
f 25/26/20 24/25/20 32/30/20 33/31/20
f 18/19/21 1/32/21 26/33/21
f 19/20/22 18/19/22 26/33/22 27/34/22
f 20/21/23 19/20/23 27/34/23 28/35/23
f 21/22/24 20/21/24 28/35/24 29/27/24
f 27/34/25 26/33/25 34/36/25 35/37/25
f 28/35/26 27/34/26 35/37/26 36/38/26
f 29/27/27 28/35/27 36/38/27 37/39/27
f 30/28/28 29/27/28 37/39/28 38/40/28
f 31/29/29 30/28/29 38/40/29 39/41/29
f 32/30/30 31/29/30 39/41/30 40/42/30
f 33/31/31 32/30/31 40/42/31 41/43/31
f 26/33/32 1/44/32 34/36/32
f 39/41/33 38/40/33 46/45/33 47/46/33
f 40/42/34 39/41/34 47/46/34 48/47/34
f 41/43/35 40/42/35 48/47/35 49/48/35
f 34/36/36 1/49/36 42/50/36
f 35/37/37 34/36/37 42/50/37 43/51/37
f 36/38/38 35/37/38 43/51/38 44/52/38
f 37/39/39 36/38/39 44/52/39 45/53/39
f 38/40/40 37/39/40 45/53/40 46/45/40
f 44/52/41 43/51/41 51/54/41 52/55/41
f 45/53/42 44/52/42 52/55/42 53/56/42
f 46/45/43 45/53/43 53/56/43 54/57/43
f 47/46/44 46/45/44 54/57/44 55/58/44
f 48/47/45 47/46/45 55/58/45 56/59/45
f 49/48/46 48/47/46 56/59/46 57/60/46
f 42/50/47 1/61/47 50/62/47
f 43/51/48 42/50/48 50/62/48 51/54/48
f 56/59/49 55/58/49 63/63/49 64/64/49
f 57/60/50 56/59/50 64/64/50 65/65/50
f 50/62/51 1/66/51 58/67/51
f 51/54/52 50/62/52 58/67/52 59/68/52
f 52/55/53 51/54/53 59/68/53 60/69/53
f 53/56/54 52/55/54 60/69/54 61/70/54
f 54/57/55 53/56/55 61/70/55 62/71/55
f 55/58/56 54/57/56 62/71/56 63/63/56
f 60/69/57 59/68/57 67/72/57 68/73/57
f 61/70/58 60/69/58 68/73/58 69/74/58
f 62/71/59 61/70/59 69/74/59 70/75/59
f 63/63/60 62/71/60 70/75/60 71/76/60
f 64/64/61 63/63/61 71/76/61 72/77/61
f 65/65/62 64/64/62 72/77/62 73/78/62
f 58/67/63 1/79/63 66/80/63
f 59/68/64 58/67/64 66/80/64 67/72/64
f 72/77/65 71/76/65 79/81/65 80/82/65
f 73/78/66 72/77/66 80/82/66 81/83/66
f 66/80/67 1/84/67 74/85/67
f 67/72/68 66/80/68 74/85/68 75/86/68
f 68/73/69 67/72/69 75/86/69 76/87/69
f 69/74/70 68/73/70 76/87/70 77/88/70
f 70/75/71 69/74/71 77/88/71 78/89/71
f 71/76/72 70/75/72 78/89/72 79/81/72
f 77/88/73 76/87/73 84/90/73 85/91/73
f 78/89/74 77/88/74 85/91/74 86/92/74
f 79/81/75 78/89/75 86/92/75 87/93/75
f 80/82/76 79/81/76 87/93/76 88/94/76
f 81/83/77 80/82/77 88/94/77 89/95/77
f 74/85/78 1/96/78 82/97/78
f 75/86/79 74/85/79 82/97/79 83/98/79
f 76/87/80 75/86/80 83/98/80 84/90/80
f 89/95/81 88/94/81 96/99/81 97/100/81
f 82/97/82 1/101/82 90/102/82
f 83/98/83 82/97/83 90/102/83 91/103/83
f 84/90/84 83/98/84 91/103/84 92/104/84
f 85/91/85 84/90/85 92/104/85 93/105/85
f 86/92/86 85/91/86 93/105/86 94/106/86
f 87/93/87 86/92/87 94/106/87 95/107/87
f 88/94/88 87/93/88 95/107/88 96/99/88
f 93/105/89 92/104/89 100/108/89 101/109/89
f 94/106/90 93/105/90 101/109/90 102/110/90
f 95/107/91 94/106/91 102/110/91 103/111/91
f 96/99/92 95/107/92 103/111/92 104/112/92
f 97/100/93 96/99/93 104/112/93 105/113/93
f 90/102/94 1/114/94 98/115/94
f 91/103/95 90/102/95 98/115/95 99/116/95
f 92/104/96 91/103/96 99/116/96 100/108/96
f 105/113/97 104/112/97 112/117/97 113/118/97
f 98/115/98 1/119/98 106/120/98
f 99/116/99 98/115/99 106/120/99 107/121/99
f 100/108/100 99/116/100 107/121/100 108/122/100
f 101/109/101 100/108/101 108/122/101 109/123/101
f 102/110/102 101/109/102 109/123/102 110/124/102
f 103/111/103 102/110/103 110/124/103 111/125/103
f 104/112/104 103/111/104 111/125/104 112/117/104
f 110/124/105 109/123/105 117/126/105 118/127/105
f 111/125/106 110/124/106 118/127/106 119/128/106
f 112/117/107 111/125/107 119/128/107 120/129/107
f 113/118/108 112/117/108 120/129/108 121/130/108
f 106/120/109 1/131/109 114/132/109
f 107/121/110 106/120/110 114/132/110 115/133/110
f 108/122/111 107/121/111 115/133/111 116/134/111
f 109/123/112 108/122/112 116/134/112 117/126/112
f 115/133/113 114/132/113 122/135/113 123/136/113
f 116/134/114 115/133/114 123/136/114 124/137/114
f 117/126/115 116/134/115 124/137/115 125/138/115
f 118/127/116 117/126/116 125/138/116 126/139/116
f 119/128/117 118/127/117 126/139/117 127/140/117
f 120/129/118 119/128/118 127/140/118 128/141/118
f 121/130/119 120/129/119 128/141/119 129/142/119
f 114/132/120 1/143/120 122/135/120
f 127/140/121 126/139/121 134/144/121 135/145/121
f 128/141/122 127/140/122 135/145/122 136/146/122
f 129/142/123 128/141/123 136/146/123 137/147/123
f 122/135/124 1/148/124 130/149/124
f 123/136/125 122/135/125 130/149/125 131/150/125
f 124/137/126 123/136/126 131/150/126 132/151/126
f 125/138/127 124/137/127 132/151/127 133/152/127
f 126/139/128 125/138/128 133/152/128 134/144/128
usemtl マテリアル.001
f 17/153/129 25/154/129 33/155/129 41/156/129 49/157/129 57/158/129 65/159/129 73/160/129 81/161/129 89/162/129 97/163/129 105/164/129 113/165/129 121/166/129 129/167/129 137/168/129 9/169/129
f 3/170/130 4/171/130 5/172/130 6/173/130 7/174/130 8/175/130 9/169/130 137/168/130 136/176/130 135/177/130 134/178/130 133/179/130 132/180/130 131/181/130 130/182/130 1/183/130 2/184/130
