# Blender 4.3.0
# www.blender.org
mtllib ninnginn.mtl
o 円柱
v -0.195090 -0.135135 0.980785
v -0.195090 0.135135 0.980785
v -0.382683 -0.135135 0.923880
v -0.382683 0.135135 0.923880
v -0.555570 -0.135135 0.831470
v -0.555570 0.135135 0.831470
v -0.707107 -0.135135 0.707107
v -0.707107 0.135135 0.707107
v -0.831470 -0.135135 0.555570
v -0.831470 0.135135 0.555570
v -0.923880 -0.135135 0.382683
v -0.923880 0.135135 0.382683
v -0.980785 -0.135135 0.195090
v -0.980785 0.135135 0.195090
v -1.000000 -0.135135 0.000000
v -1.000000 0.135135 0.000000
v -0.980785 -0.135135 -0.195090
v -0.980785 0.135135 -0.195090
v -0.923880 -0.135135 -0.382683
v -0.923880 0.135135 -0.382683
v -0.831470 -0.135135 -0.555570
v -0.831470 0.135135 -0.555570
v -0.707107 -0.135135 -0.707107
v -0.707107 0.135135 -0.707107
v -0.555570 -0.135135 -0.831470
v -0.555570 0.135135 -0.831470
v -0.382683 -0.135135 -0.923880
v -0.382683 0.135135 -0.923880
v -0.195090 -0.135135 -0.980785
v -0.195090 0.135135 -0.980785
vn -0.0000 -1.0000 -0.0000
vn -0.0000 1.0000 -0.0000
vn 1.0000 -0.0000 -0.0000
vn -0.2903 -0.0000 0.9569
vn -0.4714 -0.0000 0.8819
vn -0.6344 -0.0000 0.7730
vn -0.7730 -0.0000 0.6344
vn -0.8819 -0.0000 0.4714
vn -0.9569 -0.0000 0.2903
vn -0.9952 -0.0000 0.0980
vn -0.9952 -0.0000 -0.0980
vn -0.9569 -0.0000 -0.2903
vn -0.8819 -0.0000 -0.4714
vn -0.7730 -0.0000 -0.6344
vn -0.6344 -0.0000 -0.7730
vn -0.4714 -0.0000 -0.8819
vn -0.2903 -0.0000 -0.9569
vt 0.483540 0.947194
vt 0.483540 0.061192
vt 0.568272 0.086895
vt 0.646362 0.128635
vt 0.714808 0.184807
vt 0.770980 0.253253
vt 0.812720 0.331343
vt 0.838423 0.416075
vt 0.847102 0.504193
vt 0.838423 0.592312
vt 0.812720 0.677044
vt 0.770980 0.755133
vt 0.714808 0.823579
vt 0.646362 0.879751
vt 0.568272 0.921491
vt 0.521168 0.050645
vt 0.521168 0.949355
vt 0.435220 0.923283
vt 0.356011 0.880945
vt 0.286583 0.823967
vt 0.229605 0.754539
vt 0.187267 0.675330
vt 0.161195 0.589382
vt 0.152391 0.500000
vt 0.161195 0.410618
vt 0.187267 0.324670
vt 0.229605 0.245461
vt 0.286583 0.176033
vt 0.356011 0.119055
vt 0.435220 0.076717
vt 0.966380 0.478924
vt 0.921048 0.043779
vt 0.423739 0.095587
vt 0.469072 0.530732
vt 0.924286 0.074860
vt 0.426978 0.126668
vt 0.927524 0.105942
vt 0.430216 0.157750
vt 0.930762 0.137024
vt 0.433454 0.188832
vt 0.934000 0.168106
vt 0.436692 0.219914
vt 0.937238 0.199187
vt 0.439929 0.250996
vt 0.940476 0.230269
vt 0.443168 0.282077
vt 0.943714 0.261351
vt 0.446406 0.313159
vt 0.946952 0.292433
vt 0.449643 0.344241
vt 0.950190 0.323515
vt 0.452882 0.375323
vt 0.953428 0.354596
vt 0.456120 0.406404
vt 0.956666 0.385678
vt 0.459358 0.437486
vt 0.959904 0.416760
vt 0.462596 0.468568
vt 0.963142 0.447842
vt 0.465834 0.499650
s 0
usemtl マテリアル.006
f 29/1/1 1/2/1 3/3/1 5/4/1 7/5/1 9/6/1 11/7/1 13/8/1 15/9/1 17/10/1 19/11/1 21/12/1 23/13/1 25/14/1 27/15/1
f 2/16/2 30/17/2 28/18/2 26/19/2 24/20/2 22/21/2 20/22/2 18/23/2 16/24/2 14/25/2 12/26/2 10/27/2 8/28/2 6/29/2 4/30/2
usemtl マテリアル.007
f 30/31/3 2/32/3 1/33/3 29/34/3
f 1/33/4 2/32/4 4/35/4 3/36/4
f 3/36/5 4/35/5 6/37/5 5/38/5
f 5/38/6 6/37/6 8/39/6 7/40/6
f 7/40/7 8/39/7 10/41/7 9/42/7
f 9/42/8 10/41/8 12/43/8 11/44/8
f 11/44/9 12/43/9 14/45/9 13/46/9
f 13/46/10 14/45/10 16/47/10 15/48/10
f 15/48/11 16/47/11 18/49/11 17/50/11
f 17/50/12 18/49/12 20/51/12 19/52/12
f 19/52/13 20/51/13 22/53/13 21/54/13
f 21/54/14 22/53/14 24/55/14 23/56/14
f 23/56/15 24/55/15 26/57/15 25/58/15
f 25/58/16 26/57/16 28/59/16 27/60/16
f 27/60/17 28/59/17 30/31/17 29/34/17
